<svg version="1.2" xmlns="http://www.w3.org/2000/svg" viewBox="0 0 16 16" width="16" height="16">
	<style>
		.s0 { fill: #ffffff } 
	</style>
	<path class="s0" d="m11 6c0 0.8-0.32 1.56-0.88 2.12-0.56 0.56-1.32 0.88-2.12 0.88-0.8 0-1.56-0.32-2.12-0.88-0.56-0.56-0.88-1.32-0.88-2.12 0-0.8 0.32-1.56 0.88-2.12 0.56-0.56 1.32-0.88 2.12-0.88 0.8 0 1.56 0.32 2.12 0.88 0.56 0.56 0.88 1.32 0.88 2.12z"/>
	<path fill-rule="evenodd" class="s0" d="m0 8c0-2.12 0.84-4.16 2.34-5.66 1.5-1.5 3.54-2.34 5.66-2.34 2.12 0 4.16 0.84 5.66 2.34 1.5 1.5 2.34 3.54 2.34 5.66 0 2.12-0.84 4.16-2.34 5.66-1.5 1.5-3.54 2.34-5.66 2.34-2.12 0-4.16-0.84-5.66-2.34-1.5-1.5-2.34-3.54-2.34-5.66zm8-7c-1.32 0-2.61 0.37-3.73 1.07-1.11 0.71-2.01 1.71-2.58 2.9-0.57 1.18-0.79 2.51-0.65 3.82 0.15 1.31 0.67 2.55 1.49 3.58 0.71-1.14 2.27-2.37 5.47-2.37 3.2 0 4.76 1.22 5.47 2.37 0.82-1.03 1.34-2.27 1.49-3.58 0.14-1.31-0.08-2.64-0.65-3.82-0.57-1.19-1.47-2.19-2.58-2.9-1.12-0.7-2.41-1.07-3.73-1.07z"/>
</svg>